<?xml version="1.0" standalone="no"?>
<!DOCTYPE svg PUBLIC "-//W3C//DTD SVG 1.1//EN" "http://www.w3.org/Graphics/SVG/1.1/DTD/svg11.dtd">
<svg version="1.1" width="10000" height="278" onload="init(evt)" viewBox="0 0 10000 278" xmlns="http://www.w3.org/2000/svg" xmlns:xlink="http://www.w3.org/1999/xlink">
<!-- Flame graph stack visualization. See https://github.com/brendangregg/FlameGraph for latest version, and http://www.brendangregg.com/flamegraphs.html for examples. -->
<!-- NOTES:  -->
<defs>
	<linearGradient id="background" y1="0" y2="1" x1="0" x2="0" >
		<stop stop-color="#eeeeee" offset="5%" />
		<stop stop-color="#eeeeb0" offset="95%" />
	</linearGradient>
</defs>
<style type="text/css">
	text { font-family:Verdana; font-size:12px; fill:rgb(0,0,0); }
	#search, #ignorecase { opacity:0.1; cursor:pointer; }
	#search:hover, #search.show, #ignorecase:hover, #ignorecase.show { opacity:1; }
	#subtitle { text-anchor:middle; font-color:rgb(160,160,160); }
	#title { text-anchor:middle; font-size:17px}
	#unzoom { cursor:pointer; }
	#frames > *:hover { stroke:black; stroke-width:0.5; cursor:pointer; }
	.hide { display:none; }
	.parent { opacity:0.5; }
</style>
<script type="text/ecmascript">
<![CDATA[
	"use strict";
	var details, searchbtn, unzoombtn, matchedtxt, svg, searching, currentSearchTerm, ignorecase, ignorecaseBtn;
	function init(evt) {
		details = document.getElementById("details").firstChild;
		searchbtn = document.getElementById("search");
		ignorecaseBtn = document.getElementById("ignorecase");
		unzoombtn = document.getElementById("unzoom");
		matchedtxt = document.getElementById("matched");
		svg = document.getElementsByTagName("svg")[0];
		searching = 0;
		currentSearchTerm = null;

		// use GET parameters to restore a flamegraphs state.
		var params = get_params();
		if (params.x && params.y)
			zoom(find_group(document.querySelector('[x="' + params.x + '"][y="' + params.y + '"]')));
                if (params.s) search(params.s);
	}

	// event listeners
	window.addEventListener("click", function(e) {
		var target = find_group(e.target);
		if (target) {
			if (target.nodeName == "a") {
				if (e.ctrlKey === false) return;
				e.preventDefault();
			}
			if (target.classList.contains("parent")) unzoom(true);
			zoom(target);
			if (!document.querySelector('.parent')) {
				// we have basically done a clearzoom so clear the url
				var params = get_params();
				if (params.x) delete params.x;
				if (params.y) delete params.y;
				history.replaceState(null, null, parse_params(params));
				unzoombtn.classList.add("hide");
				return;
			}

			// set parameters for zoom state
			var el = target.querySelector("rect");
			if (el && el.attributes && el.attributes.y && el.attributes._orig_x) {
				var params = get_params()
				params.x = el.attributes._orig_x.value;
				params.y = el.attributes.y.value;
				history.replaceState(null, null, parse_params(params));
			}
		}
		else if (e.target.id == "unzoom") clearzoom();
		else if (e.target.id == "search") search_prompt();
		else if (e.target.id == "ignorecase") toggle_ignorecase();
	}, false)

	// mouse-over for info
	// show
	window.addEventListener("mouseover", function(e) {
		var target = find_group(e.target);
		if (target) details.nodeValue = "Function: " + g_to_text(target);
	}, false)

	// clear
	window.addEventListener("mouseout", function(e) {
		var target = find_group(e.target);
		if (target) details.nodeValue = ' ';
	}, false)

	// ctrl-F for search
	// ctrl-I to toggle case-sensitive search
	window.addEventListener("keydown",function (e) {
		if (e.keyCode === 114 || (e.ctrlKey && e.keyCode === 70)) {
			e.preventDefault();
			search_prompt();
		}
		else if (e.ctrlKey && e.keyCode === 73) {
			e.preventDefault();
			toggle_ignorecase();
		}
	}, false)

	// functions
	function get_params() {
		var params = {};
		var paramsarr = window.location.search.substr(1).split('&');
		for (var i = 0; i < paramsarr.length; ++i) {
			var tmp = paramsarr[i].split("=");
			if (!tmp[0] || !tmp[1]) continue;
			params[tmp[0]]  = decodeURIComponent(tmp[1]);
		}
		return params;
	}
	function parse_params(params) {
		var uri = "?";
		for (var key in params) {
			uri += key + '=' + encodeURIComponent(params[key]) + '&';
		}
		if (uri.slice(-1) == "&")
			uri = uri.substring(0, uri.length - 1);
		if (uri == '?')
			uri = window.location.href.split('?')[0];
		return uri;
	}
	function find_child(node, selector) {
		var children = node.querySelectorAll(selector);
		if (children.length) return children[0];
	}
	function find_group(node) {
		var parent = node.parentElement;
		if (!parent) return;
		if (parent.id == "frames") return node;
		return find_group(parent);
	}
	function orig_save(e, attr, val) {
		if (e.attributes["_orig_" + attr] != undefined) return;
		if (e.attributes[attr] == undefined) return;
		if (val == undefined) val = e.attributes[attr].value;
		e.setAttribute("_orig_" + attr, val);
	}
	function orig_load(e, attr) {
		if (e.attributes["_orig_"+attr] == undefined) return;
		e.attributes[attr].value = e.attributes["_orig_" + attr].value;
		e.removeAttribute("_orig_"+attr);
	}
	function g_to_text(e) {
		var text = find_child(e, "title").firstChild.nodeValue;
		return (text)
	}
	function g_to_func(e) {
		var func = g_to_text(e);
		// if there's any manipulation we want to do to the function
		// name before it's searched, do it here before returning.
		return (func);
	}
	function update_text(e) {
		var r = find_child(e, "rect");
		var t = find_child(e, "text");
		var w = parseFloat(r.attributes.width.value) -3;
		var txt = find_child(e, "title").textContent.replace(/\([^(]*\)$/,"");
		t.attributes.x.value = parseFloat(r.attributes.x.value) + 3;

		// Smaller than this size won't fit anything
		if (w < 2 * 12 * 0.59) {
			t.textContent = "";
			return;
		}

		t.textContent = txt;
		var sl = t.getSubStringLength(0, txt.length);
		// check if only whitespace or if we can fit the entire string into width w
		if (/^ *$/.test(txt) || sl < w)
			return;

		// this isn't perfect, but gives a good starting point
		// and avoids calling getSubStringLength too often
		var start = Math.floor((w/sl) * txt.length);
		for (var x = start; x > 0; x = x-2) {
			if (t.getSubStringLength(0, x + 2) <= w) {
				t.textContent = txt.substring(0, x) + "..";
				return;
			}
		}
		t.textContent = "";
	}

	// zoom
	function zoom_reset(e) {
		if (e.attributes != undefined) {
			orig_load(e, "x");
			orig_load(e, "width");
		}
		if (e.childNodes == undefined) return;
		for (var i = 0, c = e.childNodes; i < c.length; i++) {
			zoom_reset(c[i]);
		}
	}
	function zoom_child(e, x, ratio) {
		if (e.attributes != undefined) {
			if (e.attributes.x != undefined) {
				orig_save(e, "x");
				e.attributes.x.value = (parseFloat(e.attributes.x.value) - x - 10) * ratio + 10;
				if (e.tagName == "text")
					e.attributes.x.value = find_child(e.parentNode, "rect[x]").attributes.x.value + 3;
			}
			if (e.attributes.width != undefined) {
				orig_save(e, "width");
				e.attributes.width.value = parseFloat(e.attributes.width.value) * ratio;
			}
		}

		if (e.childNodes == undefined) return;
		for (var i = 0, c = e.childNodes; i < c.length; i++) {
			zoom_child(c[i], x - 10, ratio);
		}
	}
	function zoom_parent(e) {
		if (e.attributes) {
			if (e.attributes.x != undefined) {
				orig_save(e, "x");
				e.attributes.x.value = 10;
			}
			if (e.attributes.width != undefined) {
				orig_save(e, "width");
				e.attributes.width.value = parseInt(svg.width.baseVal.value) - (10 * 2);
			}
		}
		if (e.childNodes == undefined) return;
		for (var i = 0, c = e.childNodes; i < c.length; i++) {
			zoom_parent(c[i]);
		}
	}
	function zoom(node) {
		var attr = find_child(node, "rect").attributes;
		var width = parseFloat(attr.width.value);
		var xmin = parseFloat(attr.x.value);
		var xmax = parseFloat(xmin + width);
		var ymin = parseFloat(attr.y.value);
		var ratio = (svg.width.baseVal.value - 2 * 10) / width;

		// XXX: Workaround for JavaScript float issues (fix me)
		var fudge = 0.0001;

		unzoombtn.classList.remove("hide");

		var el = document.getElementById("frames").children;
		for (var i = 0; i < el.length; i++) {
			var e = el[i];
			var a = find_child(e, "rect").attributes;
			var ex = parseFloat(a.x.value);
			var ew = parseFloat(a.width.value);
			var upstack;
			// Is it an ancestor
			if (0 == 0) {
				upstack = parseFloat(a.y.value) > ymin;
			} else {
				upstack = parseFloat(a.y.value) < ymin;
			}
			if (upstack) {
				// Direct ancestor
				if (ex <= xmin && (ex+ew+fudge) >= xmax) {
					e.classList.add("parent");
					zoom_parent(e);
					update_text(e);
				}
				// not in current path
				else
					e.classList.add("hide");
			}
			// Children maybe
			else {
				// no common path
				if (ex < xmin || ex + fudge >= xmax) {
					e.classList.add("hide");
				}
				else {
					zoom_child(e, xmin, ratio);
					update_text(e);
				}
			}
		}
		search();
	}
	function unzoom(dont_update_text) {
		unzoombtn.classList.add("hide");
		var el = document.getElementById("frames").children;
		for(var i = 0; i < el.length; i++) {
			el[i].classList.remove("parent");
			el[i].classList.remove("hide");
			zoom_reset(el[i]);
			if(!dont_update_text) update_text(el[i]);
		}
		search();
	}
	function clearzoom() {
		unzoom();

		// remove zoom state
		var params = get_params();
		if (params.x) delete params.x;
		if (params.y) delete params.y;
		history.replaceState(null, null, parse_params(params));
	}

	// search
	function toggle_ignorecase() {
		ignorecase = !ignorecase;
		if (ignorecase) {
			ignorecaseBtn.classList.add("show");
		} else {
			ignorecaseBtn.classList.remove("show");
		}
		reset_search();
		search();
	}
	function reset_search() {
		var el = document.querySelectorAll("#frames rect");
		for (var i = 0; i < el.length; i++) {
			orig_load(el[i], "fill")
		}
		var params = get_params();
		delete params.s;
		history.replaceState(null, null, parse_params(params));
	}
	function search_prompt() {
		if (!searching) {
			var term = prompt("Enter a search term (regexp " +
			    "allowed, eg: ^ext4_)"
			    + (ignorecase ? ", ignoring case" : "")
			    + "\nPress Ctrl-i to toggle case sensitivity", "");
			if (term != null) search(term);
		} else {
			reset_search();
			searching = 0;
			currentSearchTerm = null;
			searchbtn.classList.remove("show");
			searchbtn.firstChild.nodeValue = "Search"
			matchedtxt.classList.add("hide");
			matchedtxt.firstChild.nodeValue = ""
		}
	}
	function search(term) {
		if (term) currentSearchTerm = term;
		if (currentSearchTerm === null) return;

		var re = new RegExp(currentSearchTerm, ignorecase ? 'i' : '');
		var el = document.getElementById("frames").children;
		var matches = new Object();
		var maxwidth = 0;
		for (var i = 0; i < el.length; i++) {
			var e = el[i];
			var func = g_to_func(e);
			var rect = find_child(e, "rect");
			if (func == null || rect == null)
				continue;

			// Save max width. Only works as we have a root frame
			var w = parseFloat(rect.attributes.width.value);
			if (w > maxwidth)
				maxwidth = w;

			if (func.match(re)) {
				// highlight
				var x = parseFloat(rect.attributes.x.value);
				orig_save(rect, "fill");
				rect.attributes.fill.value = "rgb(230,0,230)";

				// remember matches
				if (matches[x] == undefined) {
					matches[x] = w;
				} else {
					if (w > matches[x]) {
						// overwrite with parent
						matches[x] = w;
					}
				}
				searching = 1;
			}
		}
		if (!searching)
			return;
		var params = get_params();
		params.s = currentSearchTerm;
		history.replaceState(null, null, parse_params(params));

		searchbtn.classList.add("show");
		searchbtn.firstChild.nodeValue = "Reset Search";

		// calculate percent matched, excluding vertical overlap
		var count = 0;
		var lastx = -1;
		var lastw = 0;
		var keys = Array();
		for (k in matches) {
			if (matches.hasOwnProperty(k))
				keys.push(k);
		}
		// sort the matched frames by their x location
		// ascending, then width descending
		keys.sort(function(a, b){
			return a - b;
		});
		// Step through frames saving only the biggest bottom-up frames
		// thanks to the sort order. This relies on the tree property
		// where children are always smaller than their parents.
		var fudge = 0.0001;	// JavaScript floating point
		for (var k in keys) {
			var x = parseFloat(keys[k]);
			var w = matches[keys[k]];
			if (x >= lastx + lastw - fudge) {
				count += w;
				lastx = x;
				lastw = w;
			}
		}
		// display matched percent
		matchedtxt.classList.remove("hide");
		var pct = 100 * count / maxwidth;
		if (pct != 100) pct = pct.toFixed(1)
		matchedtxt.firstChild.nodeValue = "Matched: " + pct + "%";
	}
]]>
</script>
<rect x="0.0" y="0" width="10000.0" height="278.0" fill="url(#background)"  />
<text id="title" x="5000.00" y="24" >Flame Graph</text>
<text id="details" x="10.00" y="261" > </text>
<text id="unzoom" x="10.00" y="24" class="hide">Reset Zoom</text>
<text id="search" x="9890.00" y="24" >Search</text>
<text id="ignorecase" x="9974.00" y="24" >ic</text>
<text id="matched" x="9890.00" y="261" > </text>
<g id="frames">
<g >
<title>[unknown] (19,962,845 samples, 0.00%)</title><rect x="9976.4" y="101" width="0.5" height="15.0" fill="rgb(210,24,5)" rx="2" ry="2" />
<text  x="9979.44" y="111.5" ></text>
</g>
<g >
<title>gomp_barrier_wait (45,837,196 samples, 0.01%)</title><rect x="4706.0" y="165" width="1.0" height="15.0" fill="rgb(253,222,53)" rx="2" ry="2" />
<text  x="4708.99" y="175.5" ></text>
</g>
<g >
<title>GOMP_loop_nonmonotonic_dynamic_next (72,138,452 samples, 0.02%)</title><rect x="9966.7" y="181" width="1.6" height="15.0" fill="rgb(214,42,10)" rx="2" ry="2" />
<text  x="9969.69" y="191.5" ></text>
</g>
<g >
<title>GB_Global_malloc_function (41,842,873 samples, 0.01%)</title><rect x="26.5" y="197" width="1.0" height="15.0" fill="rgb(254,225,53)" rx="2" ry="2" />
<text  x="29.50" y="207.5" ></text>
</g>
<g >
<title>GB_subassign_one_slice (9,488,968 samples, 0.00%)</title><rect x="4261.8" y="197" width="0.2" height="15.0" fill="rgb(248,198,47)" rx="2" ry="2" />
<text  x="4264.80" y="207.5" ></text>
</g>
<g >
<title>GB__Asaxpy3B_noM__any_firstj_int64._omp_fn.1 (15,834,713 samples, 0.00%)</title><rect x="9975.5" y="133" width="0.4" height="15.0" fill="rgb(237,148,35)" rx="2" ry="2" />
<text  x="9978.51" y="143.5" ></text>
</g>
<g >
<title>GOMP_loop_nonmonotonic_dynamic_start (15,874,017 samples, 0.00%)</title><rect x="4705.6" y="165" width="0.4" height="15.0" fill="rgb(247,193,46)" rx="2" ry="2" />
<text  x="4708.62" y="175.5" ></text>
</g>
<g >
<title>[libc.so.6] (87,385,654 samples, 0.02%)</title><rect x="9985.6" y="165" width="2.0" height="15.0" fill="rgb(223,84,20)" rx="2" ry="2" />
<text  x="9988.63" y="175.5" ></text>
</g>
<g >
<title>GB__Asaxpy3B_noM__any_firstj_int64._omp_fn.1 (24,709,307 samples, 0.01%)</title><rect x="9975.9" y="101" width="0.5" height="15.0" fill="rgb(237,148,35)" rx="2" ry="2" />
<text  x="9978.87" y="111.5" ></text>
</g>
<g >
<title>GB__subassign_06d__int64._omp_fn.3 (59,635,402 samples, 0.01%)</title><rect x="4830.3" y="181" width="1.4" height="15.0" fill="rgb(218,62,14)" rx="2" ry="2" />
<text  x="4833.29" y="191.5" ></text>
</g>
<g >
<title>GB_subref_slice (13,774,374 samples, 0.00%)</title><rect x="9965.7" y="181" width="0.3" height="15.0" fill="rgb(210,26,6)" rx="2" ry="2" />
<text  x="9968.66" y="191.5" ></text>
</g>
<g >
<title>gomp_aligned_alloc (20,356,553 samples, 0.00%)</title><rect x="4832.3" y="117" width="0.5" height="15.0" fill="rgb(220,71,17)" rx="2" ry="2" />
<text  x="4835.35" y="127.5" ></text>
</g>
<g >
<title>std::num_get&lt;char, std::istreambuf_iterator&lt;char, std::char_traits&lt;char&gt; &gt; &gt;::do_get (12,280,120 samples, 0.00%)</title><rect x="9987.4" y="117" width="0.2" height="15.0" fill="rgb(254,229,54)" rx="2" ry="2" />
<text  x="9990.36" y="127.5" ></text>
</g>
<g >
<title>gomp_ptrlock_get_slow (17,126,163 samples, 0.00%)</title><rect x="4705.2" y="133" width="0.4" height="15.0" fill="rgb(214,42,10)" rx="2" ry="2" />
<text  x="4708.23" y="143.5" ></text>
</g>
<g >
<title>gomp_barrier_wait_end (3,894,411,894 samples, 0.90%)</title><rect x="4707.0" y="165" width="89.6" height="15.0" fill="rgb(230,118,28)" rx="2" ry="2" />
<text  x="4710.04" y="175.5" >gomp_barri..</text>
</g>
<g >
<title>GB_slice_vector (108,067,371 samples, 0.02%)</title><rect x="4259.3" y="197" width="2.5" height="15.0" fill="rgb(233,130,31)" rx="2" ry="2" />
<text  x="4262.32" y="207.5" ></text>
</g>
<g >
<title>Parser::ParseDIMACS (65,693,292 samples, 0.02%)</title><rect x="9986.1" y="133" width="1.5" height="15.0" fill="rgb(230,116,27)" rx="2" ry="2" />
<text  x="9989.13" y="143.5" ></text>
</g>
<g >
<title>GB_ek_slice (13,149,340 samples, 0.00%)</title><rect x="431.7" y="197" width="0.3" height="15.0" fill="rgb(246,191,45)" rx="2" ry="2" />
<text  x="434.73" y="207.5" ></text>
</g>
<g >
<title>gomp_new_team (41,319,496 samples, 0.01%)</title><rect x="4262.0" y="165" width="1.0" height="15.0" fill="rgb(211,31,7)" rx="2" ry="2" />
<text  x="4265.02" y="175.5" ></text>
</g>
<g >
<title>GB_add_phase1._omp_fn.0 (549,002,246 samples, 0.13%)</title><rect x="334.4" y="197" width="12.7" height="15.0" fill="rgb(252,219,52)" rx="2" ry="2" />
<text  x="337.44" y="207.5" ></text>
</g>
<g >
<title>GOMP_loop_nonmonotonic_dynamic_start (8,650,695 samples, 0.00%)</title><rect x="8631.8" y="165" width="0.2" height="15.0" fill="rgb(247,193,46)" rx="2" ry="2" />
<text  x="8634.79" y="175.5" ></text>
</g>
<g >
<title>[unknown] (60,506,865 samples, 0.01%)</title><rect x="9975.5" y="181" width="1.4" height="15.0" fill="rgb(210,24,5)" rx="2" ry="2" />
<text  x="9978.51" y="191.5" ></text>
</g>
<g >
<title>[unknown] (19,962,845 samples, 0.00%)</title><rect x="9976.4" y="53" width="0.5" height="15.0" fill="rgb(210,24,5)" rx="2" ry="2" />
<text  x="9979.44" y="63.5" ></text>
</g>
<g >
<title>GB_binop_pattern (9,882,403 samples, 0.00%)</title><rect x="430.4" y="197" width="0.2" height="15.0" fill="rgb(240,162,38)" rx="2" ry="2" />
<text  x="433.37" y="207.5" ></text>
</g>
<g >
<title>[unknown] (21,759,163 samples, 0.01%)</title><rect x="9938.0" y="133" width="0.5" height="15.0" fill="rgb(210,24,5)" rx="2" ry="2" />
<text  x="9940.97" y="143.5" ></text>
</g>
<g >
<title>GB_add (92,574,221 samples, 0.02%)</title><rect x="4831.7" y="181" width="2.1" height="15.0" fill="rgb(246,189,45)" rx="2" ry="2" />
<text  x="4834.67" y="191.5" ></text>
</g>
<g >
<title>[unknown] (224,817,817,492 samples, 51.78%)</title><rect x="4818.1" y="197" width="5167.5" height="15.0" fill="rgb(210,24,5)" rx="2" ry="2" />
<text  x="4821.14" y="207.5" >[unknown]</text>
</g>
<g >
<title>GB_builder._omp_fn.4 (59,296,926,635 samples, 13.66%)</title><rect x="4835.0" y="181" width="1363.0" height="15.0" fill="rgb(243,176,42)" rx="2" ry="2" />
<text  x="4838.03" y="191.5" >GB_builder._omp_fn.4</text>
</g>
<g >
<title>[unknown] (364,187,689 samples, 0.08%)</title><rect x="9929.6" y="165" width="8.4" height="15.0" fill="rgb(210,24,5)" rx="2" ry="2" />
<text  x="9932.60" y="175.5" ></text>
</g>
<g >
<title>gomp_work_share_end_nowait (42,592,905 samples, 0.01%)</title><rect x="8632.0" y="165" width="1.0" height="15.0" fill="rgb(245,186,44)" rx="2" ry="2" />
<text  x="8634.99" y="175.5" ></text>
</g>
<g >
<title>[unknown] (19,962,845 samples, 0.00%)</title><rect x="9976.4" y="85" width="0.5" height="15.0" fill="rgb(210,24,5)" rx="2" ry="2" />
<text  x="9979.44" y="95.5" ></text>
</g>
<g >
<title>[unknown] (19,962,845 samples, 0.00%)</title><rect x="9976.4" y="69" width="0.5" height="15.0" fill="rgb(210,24,5)" rx="2" ry="2" />
<text  x="9979.44" y="79.5" ></text>
</g>
<g >
<title>GB_werk_push (42,576,217 samples, 0.01%)</title><rect x="4832.8" y="165" width="1.0" height="15.0" fill="rgb(208,15,3)" rx="2" ry="2" />
<text  x="4835.81" y="175.5" ></text>
</g>
<g >
<title>GB_builder._omp_fn.4 (28,975,765 samples, 0.01%)</title><rect x="430.6" y="181" width="0.7" height="15.0" fill="rgb(243,176,42)" rx="2" ry="2" />
<text  x="433.59" y="191.5" ></text>
</g>
<g >
<title>GB_builder (28,975,765 samples, 0.01%)</title><rect x="430.6" y="197" width="0.7" height="15.0" fill="rgb(215,46,11)" rx="2" ry="2" />
<text  x="433.59" y="207.5" ></text>
</g>
<g >
<title>GB_jit_kernel._omp_fn.1 (25,817,306 samples, 0.01%)</title><rect x="4704.4" y="165" width="0.6" height="15.0" fill="rgb(245,186,44)" rx="2" ry="2" />
<text  x="4707.42" y="175.5" ></text>
</g>
<g >
<title>GB_add_phase2._omp_fn.0 (3,624,438,814 samples, 0.83%)</title><rect x="347.1" y="197" width="83.3" height="15.0" fill="rgb(246,190,45)" rx="2" ry="2" />
<text  x="350.06" y="207.5" >GB_add_ph..</text>
</g>
<g >
<title>GB_quicksort_1b_32_size8 (1,161,284,808 samples, 0.27%)</title><rect x="9939.0" y="181" width="26.7" height="15.0" fill="rgb(207,12,3)" rx="2" ry="2" />
<text  x="9941.97" y="191.5" >G..</text>
</g>
<g >
<title>_start (87,385,654 samples, 0.02%)</title><rect x="9985.6" y="197" width="2.0" height="15.0" fill="rgb(245,185,44)" rx="2" ry="2" />
<text  x="9988.63" y="207.5" ></text>
</g>
<g >
<title>[libc.so.6] (26,539,304 samples, 0.01%)</title><rect x="4818.1" y="133" width="0.7" height="15.0" fill="rgb(223,84,20)" rx="2" ry="2" />
<text  x="4821.14" y="143.5" ></text>
</g>
<g >
<title>gomp_work_share_start (13,624,898 samples, 0.00%)</title><rect x="9929.3" y="149" width="0.3" height="15.0" fill="rgb(214,42,10)" rx="2" ry="2" />
<text  x="9932.28" y="159.5" ></text>
</g>
<g >
<title>GB_jit_kernel (21,759,163 samples, 0.01%)</title><rect x="9938.0" y="181" width="0.5" height="15.0" fill="rgb(247,197,47)" rx="2" ry="2" />
<text  x="9940.97" y="191.5" ></text>
</g>
<g >
<title>GB_add_phase2._omp_fn.2 (47,198,298 samples, 0.01%)</title><rect x="4833.8" y="181" width="1.1" height="15.0" fill="rgb(233,130,31)" rx="2" ry="2" />
<text  x="4836.79" y="191.5" ></text>
</g>
<g >
<title>GB_AxB_saxpy3_flopcount._omp_fn.0 (82,491,442 samples, 0.02%)</title><rect x="10.4" y="197" width="1.9" height="15.0" fill="rgb(221,75,18)" rx="2" ry="2" />
<text  x="13.38" y="207.5" ></text>
</g>
<g >
<title>GOMP_loop_end_nowait (31,009,535 samples, 0.01%)</title><rect x="9966.0" y="181" width="0.7" height="15.0" fill="rgb(224,89,21)" rx="2" ry="2" />
<text  x="9968.98" y="191.5" ></text>
</g>
<g >
<title>GOMP_loop_nonmonotonic_dynamic_start (9,475,274 samples, 0.00%)</title><rect x="4705.0" y="149" width="0.2" height="15.0" fill="rgb(247,193,46)" rx="2" ry="2" />
<text  x="4708.01" y="159.5" ></text>
</g>
<g >
<title>GrB_Matrix_setElement_INT64 (21,692,362 samples, 0.00%)</title><rect x="9985.6" y="133" width="0.5" height="15.0" fill="rgb(227,105,25)" rx="2" ry="2" />
<text  x="9988.63" y="143.5" ></text>
</g>
<g >
<title>omp_get_num_threads (5,705,638 samples, 0.00%)</title><rect x="4802.0" y="165" width="0.2" height="15.0" fill="rgb(214,44,10)" rx="2" ry="2" />
<text  x="4805.04" y="175.5" ></text>
</g>
<g >
<title>[libc.so.6] (26,539,304 samples, 0.01%)</title><rect x="4818.1" y="149" width="0.7" height="15.0" fill="rgb(223,84,20)" rx="2" ry="2" />
<text  x="4821.14" y="159.5" ></text>
</g>
<g >
<title>[unknown] (3,855,021,545 samples, 0.89%)</title><rect x="4707.9" y="149" width="88.7" height="15.0" fill="rgb(210,24,5)" rx="2" ry="2" />
<text  x="4710.94" y="159.5" >[unknown]</text>
</g>
<g >
<title>GB_masker_phase2 (8,781,560 samples, 0.00%)</title><rect x="4241.9" y="197" width="0.2" height="15.0" fill="rgb(207,10,2)" rx="2" ry="2" />
<text  x="4244.92" y="207.5" ></text>
</g>
<g >
<title>GB__AaddB__second_int64._omp_fn.0 (13,330,251,231 samples, 3.07%)</title><rect x="27.5" y="197" width="306.4" height="15.0" fill="rgb(217,59,14)" rx="2" ry="2" />
<text  x="30.46" y="207.5" >GB__AaddB__second_int64._omp_fn.0</text>
</g>
<g >
<title>[libc.so.6] (20,356,553 samples, 0.00%)</title><rect x="4832.3" y="101" width="0.5" height="15.0" fill="rgb(223,84,20)" rx="2" ry="2" />
<text  x="4835.35" y="111.5" ></text>
</g>
<g >
<title>GB_add_sparsity (6,417,286 samples, 0.00%)</title><rect x="4834.9" y="181" width="0.1" height="15.0" fill="rgb(250,211,50)" rx="2" ry="2" />
<text  x="4837.88" y="191.5" ></text>
</g>
<g >
<title>gomp_team_barrier_wait_final (129,878,416 samples, 0.03%)</title><rect x="4796.6" y="165" width="2.9" height="15.0" fill="rgb(221,75,18)" rx="2" ry="2" />
<text  x="4799.55" y="175.5" ></text>
</g>
<g >
<title>GB_convert_s2b._omp_fn.9 (24,748,957 samples, 0.01%)</title><rect x="7913.2" y="181" width="0.6" height="15.0" fill="rgb(230,117,28)" rx="2" ry="2" />
<text  x="7916.19" y="191.5" ></text>
</g>
<g >
<title>GB_subref_slice (41,319,496 samples, 0.01%)</title><rect x="4262.0" y="197" width="1.0" height="15.0" fill="rgb(210,26,6)" rx="2" ry="2" />
<text  x="4265.02" y="207.5" ></text>
</g>
<g >
<title>GB__Asaxpy3B_noM__any_firstj_int64._omp_fn.1 (429,443,792 samples, 0.10%)</title><rect x="4820.4" y="181" width="9.9" height="15.0" fill="rgb(237,148,35)" rx="2" ry="2" />
<text  x="4823.42" y="191.5" ></text>
</g>
<g >
<title>GOMP_loop_nonmonotonic_dynamic_next (22,251,002 samples, 0.01%)</title><rect x="4263.6" y="197" width="0.5" height="15.0" fill="rgb(214,42,10)" rx="2" ry="2" />
<text  x="4266.62" y="207.5" ></text>
</g>
<g >
<title>GOMP_parallel (41,319,496 samples, 0.01%)</title><rect x="4262.0" y="181" width="1.0" height="15.0" fill="rgb(208,14,3)" rx="2" ry="2" />
<text  x="4265.02" y="191.5" ></text>
</g>
<g >
<title>[libc.so.6] (4,272,666,696 samples, 0.98%)</title><rect x="4704.0" y="181" width="98.2" height="15.0" fill="rgb(223,84,20)" rx="2" ry="2" />
<text  x="4706.97" y="191.5" >[libc.so.6]</text>
</g>
<g >
<title>[unknown] (44,672,152 samples, 0.01%)</title><rect x="9975.9" y="133" width="1.0" height="15.0" fill="rgb(210,24,5)" rx="2" ry="2" />
<text  x="9978.87" y="143.5" ></text>
</g>
<g >
<title>gomp_thread_start (109,019,604 samples, 0.03%)</title><rect x="4799.5" y="165" width="2.5" height="15.0" fill="rgb(238,155,37)" rx="2" ry="2" />
<text  x="4802.54" y="175.5" ></text>
</g>
<g >
<title>GB_jit_kernel._omp_fn.1 (56,775,630,631 samples, 13.08%)</title><rect x="8633.0" y="181" width="1305.0" height="15.0" fill="rgb(245,186,44)" rx="2" ry="2" />
<text  x="8635.97" y="191.5" >GB_jit_kernel._omp_fn.1</text>
</g>
<g >
<title>GB_jit_kernel._omp_fn.1 (57,656,548,583 samples, 13.28%)</title><rect x="2916.7" y="197" width="1325.2" height="15.0" fill="rgb(245,186,44)" rx="2" ry="2" />
<text  x="2919.67" y="207.5" >GB_jit_kernel._omp_fn.1</text>
</g>
<g >
<title>all (434,192,015,606 samples, 100%)</title><rect x="10.0" y="229" width="9980.0" height="15.0" fill="rgb(213,39,9)" rx="2" ry="2" />
<text  x="13.00" y="239.5" ></text>
</g>
<g >
<title>[unknown] (10,865,048 samples, 0.00%)</title><rect x="9975.3" y="165" width="0.2" height="15.0" fill="rgb(210,24,5)" rx="2" ry="2" />
<text  x="9978.26" y="175.5" ></text>
</g>
<g >
<title>__libc_start_main (87,385,654 samples, 0.02%)</title><rect x="9985.6" y="181" width="2.0" height="15.0" fill="rgb(236,142,34)" rx="2" ry="2" />
<text  x="9988.63" y="191.5" ></text>
</g>
<g >
<title>GOMP_loop_nonmonotonic_dynamic_start (17,126,163 samples, 0.00%)</title><rect x="4705.2" y="149" width="0.4" height="15.0" fill="rgb(247,193,46)" rx="2" ry="2" />
<text  x="4708.23" y="159.5" ></text>
</g>
<g >
<title>GOMP_loop_end_nowait (28,530,801 samples, 0.01%)</title><rect x="4263.0" y="197" width="0.6" height="15.0" fill="rgb(224,89,21)" rx="2" ry="2" />
<text  x="4265.97" y="207.5" ></text>
</g>
<g >
<title>GB__Asaxpy3B_noM__any_firstj_int64._omp_fn.1 (19,962,845 samples, 0.00%)</title><rect x="9976.4" y="37" width="0.5" height="15.0" fill="rgb(237,148,35)" rx="2" ry="2" />
<text  x="9979.44" y="47.5" ></text>
</g>
<g >
<title>[unknown] (60,506,865 samples, 0.01%)</title><rect x="9975.5" y="165" width="1.4" height="15.0" fill="rgb(210,24,5)" rx="2" ry="2" />
<text  x="9978.51" y="175.5" ></text>
</g>
<g >
<title>GB_nnz (6,061,620 samples, 0.00%)</title><rect x="4242.1" y="197" width="0.2" height="15.0" fill="rgb(205,2,0)" rx="2" ry="2" />
<text  x="4245.12" y="207.5" ></text>
</g>
<g >
<title>GB_Global_j_control_get (17,973,955 samples, 0.00%)</title><rect x="4819.5" y="181" width="0.5" height="15.0" fill="rgb(223,85,20)" rx="2" ry="2" />
<text  x="4822.55" y="191.5" ></text>
</g>
<g >
<title>GOMP_parallel (49,998,004 samples, 0.01%)</title><rect x="4831.7" y="149" width="1.1" height="15.0" fill="rgb(208,14,3)" rx="2" ry="2" />
<text  x="4834.67" y="159.5" ></text>
</g>
<g >
<title>GB__AaddB__second_int64._omp_fn.0 (20,247,384 samples, 0.00%)</title><rect x="4820.0" y="181" width="0.4" height="15.0" fill="rgb(217,59,14)" rx="2" ry="2" />
<text  x="4822.96" y="191.5" ></text>
</g>
<g >
<title>gomp_work_share_start (8,650,695 samples, 0.00%)</title><rect x="8631.8" y="149" width="0.2" height="15.0" fill="rgb(214,42,10)" rx="2" ry="2" />
<text  x="8634.79" y="159.5" ></text>
</g>
<g >
<title>main (87,385,654 samples, 0.02%)</title><rect x="9985.6" y="149" width="2.0" height="15.0" fill="rgb(243,179,42)" rx="2" ry="2" />
<text  x="9988.63" y="159.5" ></text>
</g>
<g >
<title>GB_memcpy._omp_fn.0 (9,475,274 samples, 0.00%)</title><rect x="4705.0" y="165" width="0.2" height="15.0" fill="rgb(213,39,9)" rx="2" ry="2" />
<text  x="4708.01" y="175.5" ></text>
</g>
<g >
<title>gomp_new_team (49,998,004 samples, 0.01%)</title><rect x="4831.7" y="133" width="1.1" height="15.0" fill="rgb(211,31,7)" rx="2" ry="2" />
<text  x="4834.67" y="143.5" ></text>
</g>
<g >
<title>GB_jit_kernel (29,601,645 samples, 0.01%)</title><rect x="7913.8" y="181" width="0.6" height="15.0" fill="rgb(247,197,47)" rx="2" ry="2" />
<text  x="7916.76" y="191.5" ></text>
</g>
<g >
<title>std::istreambuf_iterator&lt;char, std::char_traits&lt;char&gt; &gt; std::num_get&lt;char, std::istreambuf_iterator&lt;char, std::char_traits&lt;char&gt; &gt; &gt;::_M_extract_int&lt;long&gt; (37,633,280 samples, 0.01%)</title><rect x="9986.5" y="101" width="0.9" height="15.0" fill="rgb(241,167,39)" rx="2" ry="2" />
<text  x="9989.49" y="111.5" ></text>
</g>
<g >
<title>GB_convert_s2b._omp_fn.1 (43,465,165,209 samples, 10.01%)</title><rect x="6914.1" y="181" width="999.1" height="15.0" fill="rgb(232,124,29)" rx="2" ry="2" />
<text  x="6917.13" y="191.5" >GB_convert_s2b._omp_fn.1</text>
</g>
<g >
<title>[unknown] (16,090,210 samples, 0.00%)</title><rect x="6913.8" y="165" width="0.3" height="15.0" fill="rgb(210,24,5)" rx="2" ry="2" />
<text  x="6916.76" y="175.5" ></text>
</g>
<g >
<title>__libc_memalign (29,641,451 samples, 0.01%)</title><rect x="4831.7" y="117" width="0.6" height="15.0" fill="rgb(234,136,32)" rx="2" ry="2" />
<text  x="4834.67" y="127.5" ></text>
</g>
<g >
<title>GB_memset._omp_fn.0 (17,126,163 samples, 0.00%)</title><rect x="4705.2" y="165" width="0.4" height="15.0" fill="rgb(213,39,9)" rx="2" ry="2" />
<text  x="4708.23" y="175.5" ></text>
</g>
<g >
<title>[unknown] (44,672,152 samples, 0.01%)</title><rect x="9975.9" y="117" width="1.0" height="15.0" fill="rgb(210,24,5)" rx="2" ry="2" />
<text  x="9978.87" y="127.5" ></text>
</g>
<g >
<title>GB_AxB_saxpy3_flopcount (26,539,304 samples, 0.01%)</title><rect x="4818.1" y="181" width="0.7" height="15.0" fill="rgb(217,56,13)" rx="2" ry="2" />
<text  x="4821.14" y="191.5" ></text>
</g>
<g >
<title>std::istream&amp; std::istream::_M_extract&lt;unsigned long&gt; (15,779,892 samples, 0.00%)</title><rect x="9986.1" y="117" width="0.4" height="15.0" fill="rgb(205,2,0)" rx="2" ry="2" />
<text  x="9989.13" y="127.5" ></text>
</g>
<g >
<title>GB_BinaryOp_compatible (19,796,747 samples, 0.00%)</title><rect x="4818.8" y="181" width="0.4" height="15.0" fill="rgb(235,141,33)" rx="2" ry="2" />
<text  x="4821.75" y="191.5" ></text>
</g>
<g >
<title>std::istream::operator&gt;&gt; (37,633,280 samples, 0.01%)</title><rect x="9986.5" y="117" width="0.9" height="15.0" fill="rgb(226,99,23)" rx="2" ry="2" />
<text  x="9989.49" y="127.5" ></text>
</g>
<g >
<title>gb-msbfs (434,192,015,606 samples, 100.00%)</title><rect x="10.0" y="213" width="9980.0" height="15.0" fill="rgb(242,172,41)" rx="2" ry="2" />
<text  x="13.00" y="223.5" >gb-msbfs</text>
</g>
<g >
<title>GB_add_phase2 (49,998,004 samples, 0.01%)</title><rect x="4831.7" y="165" width="1.1" height="15.0" fill="rgb(242,171,41)" rx="2" ry="2" />
<text  x="4834.67" y="175.5" ></text>
</g>
<g >
<title>GOMP_parallel (175,020,330 samples, 0.04%)</title><rect x="9969.0" y="181" width="4.0" height="15.0" fill="rgb(208,14,3)" rx="2" ry="2" />
<text  x="9972.00" y="191.5" ></text>
</g>
<g >
<title>[unknown] (21,759,163 samples, 0.01%)</title><rect x="9938.0" y="165" width="0.5" height="15.0" fill="rgb(210,24,5)" rx="2" ry="2" />
<text  x="9940.97" y="175.5" ></text>
</g>
<g >
<title>GB_AxB_saxpy3_sym_ss._omp_fn.0 (618,645,923 samples, 0.14%)</title><rect x="12.3" y="197" width="14.2" height="15.0" fill="rgb(212,35,8)" rx="2" ry="2" />
<text  x="15.28" y="207.5" ></text>
</g>
<g >
<title>GOMP_loop_nonmonotonic_dynamic_start (28,149,097 samples, 0.01%)</title><rect x="9968.3" y="181" width="0.7" height="15.0" fill="rgb(247,193,46)" rx="2" ry="2" />
<text  x="9971.35" y="191.5" ></text>
</g>
<g >
<title>gomp_barrier_wait_end (175,020,330 samples, 0.04%)</title><rect x="9969.0" y="165" width="4.0" height="15.0" fill="rgb(230,118,28)" rx="2" ry="2" />
<text  x="9972.00" y="175.5" ></text>
</g>
<g >
<title>GB_AxB_saxpy (16,701,924 samples, 0.00%)</title><rect x="10.0" y="181" width="0.4" height="15.0" fill="rgb(229,114,27)" rx="2" ry="2" />
<text  x="13.00" y="191.5" ></text>
</g>
<g >
<title>GB_Global_burble_get@plt (14,595,703 samples, 0.00%)</title><rect x="4819.2" y="181" width="0.3" height="15.0" fill="rgb(247,193,46)" rx="2" ry="2" />
<text  x="4822.21" y="191.5" ></text>
</g>
<g >
<title>[libc.so.6] (108,307,724 samples, 0.02%)</title><rect x="9973.0" y="181" width="2.5" height="15.0" fill="rgb(223,84,20)" rx="2" ry="2" />
<text  x="9976.02" y="191.5" ></text>
</g>
<g >
<title>GB_setElement (21,692,362 samples, 0.00%)</title><rect x="9985.6" y="117" width="0.5" height="15.0" fill="rgb(207,12,3)" rx="2" ry="2" />
<text  x="9988.63" y="127.5" ></text>
</g>
<g >
<title>GB_quicksort_3_32_32_32 (742,219,580 samples, 0.17%)</title><rect x="4242.3" y="197" width="17.0" height="15.0" fill="rgb(232,127,30)" rx="2" ry="2" />
<text  x="4245.26" y="207.5" ></text>
</g>
<g >
<title>gomp_iter_dynamic_next (379,971,616 samples, 0.09%)</title><rect x="9976.9" y="181" width="8.7" height="15.0" fill="rgb(221,76,18)" rx="2" ry="2" />
<text  x="9979.90" y="191.5" ></text>
</g>
<g >
<title>GOMP_loop_nonmonotonic_dynamic_start (13,624,898 samples, 0.00%)</title><rect x="9929.3" y="165" width="0.3" height="15.0" fill="rgb(247,193,46)" rx="2" ry="2" />
<text  x="9932.28" y="175.5" ></text>
</g>
<g >
<title>GB_convert_sparse_to_bitmap_test (20,545,963 samples, 0.00%)</title><rect x="431.3" y="197" width="0.4" height="15.0" fill="rgb(242,171,41)" rx="2" ry="2" />
<text  x="434.26" y="207.5" ></text>
</g>
<g >
<title>GB_msort_3_merge_32_32_32 (21,774,746 samples, 0.01%)</title><rect x="9938.5" y="181" width="0.5" height="15.0" fill="rgb(248,202,48)" rx="2" ry="2" />
<text  x="9941.47" y="191.5" ></text>
</g>
<g >
<title>gomp_iter_dynamic_next (102,633,303 samples, 0.02%)</title><rect x="9987.6" y="197" width="2.4" height="15.0" fill="rgb(221,76,18)" rx="2" ry="2" />
<text  x="9990.64" y="207.5" ></text>
</g>
<g >
<title>gomp_team_barrier_wait_end (52,088,343 samples, 0.01%)</title><rect x="4800.8" y="149" width="1.2" height="15.0" fill="rgb(234,135,32)" rx="2" ry="2" />
<text  x="4803.85" y="159.5" ></text>
</g>
<g >
<title>[unknown] (175,020,330 samples, 0.04%)</title><rect x="9969.0" y="149" width="4.0" height="15.0" fill="rgb(210,24,5)" rx="2" ry="2" />
<text  x="9972.00" y="159.5" ></text>
</g>
<g >
<title>[unknown] (139,489,286 samples, 0.03%)</title><rect x="4238.7" y="181" width="3.2" height="15.0" fill="rgb(210,24,5)" rx="2" ry="2" />
<text  x="4241.71" y="191.5" ></text>
</g>
<g >
<title>[libc.so.6] (26,539,304 samples, 0.01%)</title><rect x="4818.1" y="165" width="0.7" height="15.0" fill="rgb(223,84,20)" rx="2" ry="2" />
<text  x="4821.14" y="175.5" ></text>
</g>
<g >
<title>GB_builder._omp_fn.5 (31,157,069,845 samples, 7.18%)</title><rect x="6198.0" y="181" width="716.1" height="15.0" fill="rgb(236,146,35)" rx="2" ry="2" />
<text  x="6200.98" y="191.5" >GB_builder._omp_fn.5</text>
</g>
<g >
<title>[unknown] (60,506,865 samples, 0.01%)</title><rect x="9975.5" y="149" width="1.4" height="15.0" fill="rgb(210,24,5)" rx="2" ry="2" />
<text  x="9978.51" y="159.5" ></text>
</g>
<g >
<title>GB_jit_kernel._omp_fn.0 (31,260,555,768 samples, 7.20%)</title><rect x="7914.4" y="181" width="718.6" height="15.0" fill="rgb(252,216,51)" rx="2" ry="2" />
<text  x="7917.44" y="191.5" >GB_jit_kernel._omp_fn.0</text>
</g>
<g >
<title>GB_jit_kernel._omp_fn.0 (108,096,967,947 samples, 24.90%)</title><rect x="432.0" y="197" width="2484.7" height="15.0" fill="rgb(252,216,51)" rx="2" ry="2" />
<text  x="435.03" y="207.5" >GB_jit_kernel._omp_fn.0</text>
</g>
<g >
<title>GB_builder._omp_fn.4 (19,521,188 samples, 0.00%)</title><rect x="4704.0" y="165" width="0.4" height="15.0" fill="rgb(243,176,42)" rx="2" ry="2" />
<text  x="4706.97" y="175.5" ></text>
</g>
<g >
<title>gomp_team_barrier_wait_end (21,759,163 samples, 0.01%)</title><rect x="9938.0" y="149" width="0.5" height="15.0" fill="rgb(234,135,32)" rx="2" ry="2" />
<text  x="9940.97" y="159.5" ></text>
</g>
<g >
<title>GB__bld__second_int64._omp_fn.2 (25,186,637 samples, 0.01%)</title><rect x="333.9" y="197" width="0.5" height="15.0" fill="rgb(243,175,41)" rx="2" ry="2" />
<text  x="336.86" y="207.5" ></text>
</g>
<g >
<title>[unknown] (17,126,163 samples, 0.00%)</title><rect x="4705.2" y="117" width="0.4" height="15.0" fill="rgb(210,24,5)" rx="2" ry="2" />
<text  x="4708.23" y="127.5" ></text>
</g>
<g >
<title>GB_AxB_meta (16,701,924 samples, 0.00%)</title><rect x="10.0" y="197" width="0.4" height="15.0" fill="rgb(247,194,46)" rx="2" ry="2" />
<text  x="13.00" y="207.5" ></text>
</g>
<g >
<title>std::istreambuf_iterator&lt;char, std::char_traits&lt;char&gt; &gt; std::num_get&lt;char, std::istreambuf_iterator&lt;char, std::char_traits&lt;char&gt; &gt; &gt;::_M_extract_int&lt;unsigned long&gt; (15,779,892 samples, 0.00%)</title><rect x="9986.1" y="101" width="0.4" height="15.0" fill="rgb(222,81,19)" rx="2" ry="2" />
<text  x="9989.13" y="111.5" ></text>
</g>
<g >
<title>[unknown] (694,791,465 samples, 0.16%)</title><rect x="4802.2" y="181" width="15.9" height="15.0" fill="rgb(210,24,5)" rx="2" ry="2" />
<text  x="4805.17" y="191.5" ></text>
</g>
<g >
<title>[libc.so.6] (24,102,827,668 samples, 5.55%)</title><rect x="4264.1" y="197" width="554.0" height="15.0" fill="rgb(223,84,20)" rx="2" ry="2" />
<text  x="4267.14" y="207.5" >[libc.so.6]</text>
</g>
</g>
</svg>
